{
  "accessors": [
    {
      "bufferView": 2,
      "componentType": 5126,
      "count": 65534,
      "max": [
        4.6999988555908203,
        4.5999999046325684,
        4.6999988555908203
      ],
      "min": [
        -4.5999999046325684,
        -4.6999988555908203,
        0
      ],
      "type": "VEC3"
    },
    {
      "bufferView": 2,
      "byteOffset": 786408,
      "componentType": 5126,
      "count": 65534,
      "max": [
        1,
        1,
        1
      ],
      "min": [
        -1,
        -1,
        -1
      ],
      "type": "VEC3"
    },
    {
      "bufferView": 3,
      "componentType": 5126,
      "count": 65534,
      "max": [
        1,
        1,
        1,
        1
      ],
      "min": [
        -1,
        -1,
        -1,
        1
      ],
      "type": "VEC4"
    },
    {
      "bufferView": 1,
      "componentType": 5126,
      "count": 65534,
      "max": [
        0.99926000833511353,
        0.51049000024795532
      ],
      "min": [
        0.00047999998787418008,
        0.00047999998787418008
      ],
      "type": "VEC2"
    },
    {
      "bufferView": 0,
      "componentType": 5125,
      "count": 199923,
      "max": [
        65533
      ],
      "min": [
        0
      ],
      "type": "SCALAR"
    },
    {
      "bufferView": 2,
      "byteOffset": 1572816,
      "componentType": 5126,
      "count": 65533,
      "max": [
        4.6999988555908203,
        4.5999999046325684,
        5.8000001907348633
      ],
      "min": [
        -3.9000000953674316,
        -4.6999988555908203,
        0
      ],
      "type": "VEC3"
    },
    {
      "bufferView": 2,
      "byteOffset": 2359212,
      "componentType": 5126,
      "count": 65533,
      "max": [
        1,
        1,
        1
      ],
      "min": [
        -1,
        -1,
        -1
      ],
      "type": "VEC3"
    },
    {
      "bufferView": 3,
      "byteOffset": 1048544,
      "componentType": 5126,
      "count": 65533,
      "max": [
        1,
        1,
        1,
        1
      ],
      "min": [
        -1,
        -1,
        -1,
        1
      ],
      "type": "VEC4"
    },
    {
      "bufferView": 1,
      "byteOffset": 524272,
      "componentType": 5126,
      "count": 65533,
      "max": [
        0.99926000833511353,
        0.63744997978210449
      ],
      "min": [
        0.00047999998787418008,
        0.0031699999235570431
      ],
      "type": "VEC2"
    },
    {
      "bufferView": 0,
      "byteOffset": 799692,
      "componentType": 5125,
      "count": 110118,
      "max": [
        65532
      ],
      "min": [
        0
      ],
      "type": "SCALAR"
    },
    {
      "bufferView": 2,
      "byteOffset": 3145608,
      "componentType": 5126,
      "count": 65532,
      "max": [
        4.6999988555908203,
        4.5999999046325684,
        6
      ],
      "min": [
        -4.5999999046325684,
        -4.40625,
        0.60000002384185791
      ],
      "type": "VEC3"
    },
    {
      "bufferView": 2,
      "byteOffset": 3931992,
      "componentType": 5126,
      "count": 65532,
      "max": [
        1,
        1,
        1
      ],
      "min": [
        -1,
        -1,
        -1
      ],
      "type": "VEC3"
    },
    {
      "bufferView": 3,
      "byteOffset": 2097072,
      "componentType": 5126,
      "count": 65532,
      "max": [
        1,
        1,
        1,
        1
      ],
      "min": [
        -1,
        -1,
        -1,
        1
      ],
      "type": "VEC4"
    },
    {
      "bufferView": 1,
      "byteOffset": 1048536,
      "componentType": 5126,
      "count": 65532,
      "max": [
        0.99926000833511353,
        0.78662002086639404
      ],
      "min": [
        0.00047999998787418008,
        0.089350000023841858
      ],
      "type": "VEC2"
    },
    {
      "bufferView": 0,
      "byteOffset": 1240164,
      "componentType": 5125,
      "count": 103533,
      "max": [
        65531
      ],
      "min": [
        0
      ],
      "type": "SCALAR"
    },
    {
      "bufferView": 2,
      "byteOffset": 4718376,
      "componentType": 5126,
      "count": 65534,
      "max": [
        3.5,
        3.5999999046325684,
        6
      ],
      "min": [
        -3.7000000476837158,
        -3.7000000476837158,
        0.60000002384185791
      ],
      "type": "VEC3"
    },
    {
      "bufferView": 2,
      "byteOffset": 5504784,
      "componentType": 5126,
      "count": 65534,
      "max": [
        1,
        1,
        1
      ],
      "min": [
        -1,
        -1,
        -1
      ],
      "type": "VEC3"
    },
    {
      "bufferView": 3,
      "byteOffset": 3145584,
      "componentType": 5126,
      "count": 65534,
      "max": [
        1,
        1,
        0,
        1
      ],
      "min": [
        -1,
        -1,
        -1,
        1
      ],
      "type": "VEC4"
    },
    {
      "bufferView": 1,
      "byteOffset": 1572792,
      "componentType": 5126,
      "count": 65534,
      "max": [
        0.99926000833511353,
        0.95482999086380005
      ],
      "min": [
        0.00047999998787418008,
        0.26708999276161194
      ],
      "type": "VEC2"
    },
    {
      "bufferView": 0,
      "byteOffset": 1654296,
      "componentType": 5125,
      "count": 98319,
      "max": [
        65533
      ],
      "min": [
        0
      ],
      "type": "SCALAR"
    },
    {
      "bufferView": 2,
      "byteOffset": 6291192,
      "componentType": 5126,
      "count": 5383,
      "max": [
        3.4000000953674316,
        1.2953100204467773,
        4.9000000953674316
      ],
      "min": [
        -3.7000000476837158,
        -1.3999999761581421,
        0.69999998807907104
      ],
      "type": "VEC3"
    },
    {
      "bufferView": 2,
      "byteOffset": 6355788,
      "componentType": 5126,
      "count": 5383,
      "max": [
        1,
        1,
        1
      ],
      "min": [
        -1,
        -1,
        -1
      ],
      "type": "VEC3"
    },
    {
      "bufferView": 3,
      "byteOffset": 4194128,
      "componentType": 5126,
      "count": 5383,
      "max": [
        1,
        1,
        0,
        1
      ],
      "min": [
        -1,
        -1,
        0,
        1
      ],
      "type": "VEC4"
    },
    {
      "bufferView": 1,
      "byteOffset": 2097064,
      "componentType": 5126,
      "count": 5383,
      "max": [
        0.99926000833511353,
        0.97070002555847168
      ],
      "min": [
        0.00047999998787418008,
        0.375
      ],
      "type": "VEC2"
    },
    {
      "bufferView": 0,
      "byteOffset": 2047572,
      "componentType": 5125,
      "count": 8079,
      "max": [
        5382
      ],
      "min": [
        0
      ],
      "type": "SCALAR"
    },
    {
      "bufferView": 2,
      "byteOffset": 6420384,
      "componentType": 5126,
      "count": 35047,
      "max": [
        4.6999988555908203,
        4.5999999046325684,
        4.6999988555908203
      ],
      "min": [
        -4.5999999046325684,
        -4.6999988555908203,
        0.82375001907348633
      ],
      "type": "VEC3"
    },
    {
      "bufferView": 2,
      "byteOffset": 6840948,
      "componentType": 5126,
      "count": 35047,
      "max": [
        1,
        1,
        1
      ],
      "min": [
        -1,
        -1,
        -1
      ],
      "type": "VEC3"
    },
    {
      "bufferView": 3,
      "byteOffset": 4280256,
      "componentType": 5126,
      "count": 35047,
      "max": [
        1,
        1,
        1,
        1
      ],
      "min": [
        -1,
        -1,
        -1,
        1
      ],
      "type": "VEC4"
    },
    {
      "bufferView": 1,
      "byteOffset": 2140128,
      "componentType": 5126,
      "count": 35047,
      "max": [
        0.99926000833511353,
        0.83104997873306274
      ],
      "min": [
        0.00047999998787418008,
        0.12744000554084778
      ],
      "type": "VEC2"
    },
    {
      "bufferView": 0,
      "byteOffset": 2079888,
      "componentType": 5125,
      "count": 56922,
      "max": [
        35046
      ],
      "min": [
        0
      ],
      "type": "SCALAR"
    }
  ],
  "asset": {
    "extras": {
      "author": "patrix (https://sketchfab.com/patrix)",
      "license": "CC-BY-NC-SA-4.0 (http://creativecommons.org/licenses/by-nc-sa/4.0/)",
      "source": "https://sketchfab.com/models/5a62592e2c9d41be96ea888472779544",
      "title": "Mayan Temple"
    },
    "generator": "Sketchfab-3.19.5",
    "version": "2.0"
  },
  "bufferViews": [
    {
      "buffer": 0,
      "byteLength": 2307576,
      "byteOffset": 0,
      "name": "floatBufferViews",
      "target": 34963
    },
    {
      "buffer": 0,
      "byteLength": 2420504,
      "byteOffset": 2307576,
      "byteStride": 8,
      "name": "floatBufferViews",
      "target": 34962
    },
    {
      "buffer": 0,
      "byteLength": 7261512,
      "byteOffset": 4728080,
      "byteStride": 12,
      "name": "floatBufferViews",
      "target": 34962
    },
    {
      "buffer": 0,
      "byteLength": 4841008,
      "byteOffset": 11989592,
      "byteStride": 16,
      "name": "floatBufferViews",
      "target": 34962
    }
  ],
  "buffers": [
    {
      "byteLength": 16830600,
      "uri": "scene.bin"
    }
  ],
  "images": [
    {
      "uri": "textures/transparent_baseColor.png"
    },
    {
      "uri": "textures/transparent_emissive.jpg"
    },
    {
      "uri": "textures/transparent_normal.jpg"
    },
    {
      "uri": "textures/base_emissive.jpg"
    },
    {
      "uri": "textures/base_baseColor.jpg"
    }
  ],
  "materials": [
    {
      "doubleSided": false,
      "emissiveFactor": [
        1,
        1,
        1
      ],
      "emissiveTexture": {
        "index": 3,
        "texCoord": 0
      },
      "name": "base",
      "pbrMetallicRoughness": {
        "baseColorFactor": [
          1,
          1,
          1,
          1
        ],
        "baseColorTexture": {
          "index": 4,
          "texCoord": 0
        },
        "metallicFactor": 0,
        "roughnessFactor": 0.59999999999999998
      }
    },
    {
      "alphaMode": "BLEND",
      "doubleSided": false,
      "emissiveFactor": [
        1,
        1,
        1
      ],
      "emissiveTexture": {
        "index": 1,
        "texCoord": 0
      },
      "name": "transparent",
      "normalTexture": {
        "index": 2,
        "scale": 1,
        "texCoord": 0
      },
      "pbrMetallicRoughness": {
        "baseColorFactor": [
          1,
          1,
          1,
          1
        ],
        "baseColorTexture": {
          "index": 0,
          "texCoord": 0
        },
        "metallicFactor": 0,
        "roughnessFactor": 0.59999999999999998
      }
    }
  ],
  "meshes": [
    {
      "primitives": [
        {
          "attributes": {
            "NORMAL": 1,
            "POSITION": 0,
            "TANGENT": 2,
            "TEXCOORD_0": 3
          },
          "indices": 4,
          "material": 0,
          "mode": 4
        }
      ]
    },
    {
      "primitives": [
        {
          "attributes": {
            "NORMAL": 6,
            "POSITION": 5,
            "TANGENT": 7,
            "TEXCOORD_0": 8
          },
          "indices": 9,
          "material": 0,
          "mode": 4
        }
      ]
    },
    {
      "primitives": [
        {
          "attributes": {
            "NORMAL": 11,
            "POSITION": 10,
            "TANGENT": 12,
            "TEXCOORD_0": 13
          },
          "indices": 14,
          "material": 0,
          "mode": 4
        }
      ]
    },
    {
      "primitives": [
        {
          "attributes": {
            "NORMAL": 16,
            "POSITION": 15,
            "TANGENT": 17,
            "TEXCOORD_0": 18
          },
          "indices": 19,
          "material": 0,
          "mode": 4
        }
      ]
    },
    {
      "primitives": [
        {
          "attributes": {
            "NORMAL": 21,
            "POSITION": 20,
            "TANGENT": 22,
            "TEXCOORD_0": 23
          },
          "indices": 24,
          "material": 0,
          "mode": 4
        }
      ]
    },
    {
      "primitives": [
        {
          "attributes": {
            "NORMAL": 26,
            "POSITION": 25,
            "TANGENT": 27,
            "TEXCOORD_0": 28
          },
          "indices": 29,
          "material": 1,
          "mode": 4
        }
      ]
    }
  ],
  "nodes": [
    {
      "children": [
        1
      ],
      "name": "RootNode (gltf orientation matrix)",
      "rotation": [
        -0.70710678118654746,
        -0,
        -0,
        0.70710678118654757
      ]
    },
    {
      "children": [
        2
      ],
      "matrix": [
        0,
        1,
        0,
        0,
        -1,
        0,
        0,
        0,
        0,
        0,
        1,
        0,
        0,
        0,
        0,
        1
      ],
      "name": "RootNode (model correction matrix)"
    },
    {
      "children": [
        3,
        4,
        5,
        6,
        7,
        8
      ],
      "name": "maya_temple_PUV_seperated.OBJ.cleaner.materialmerger.gles"
    },
    {
      "mesh": 0,
      "name": ""
    },
    {
      "mesh": 1,
      "name": ""
    },
    {
      "mesh": 2,
      "name": ""
    },
    {
      "mesh": 3,
      "name": ""
    },
    {
      "mesh": 4,
      "name": ""
    },
    {
      "mesh": 5,
      "name": ""
    }
  ],
  "samplers": [
    {
      "magFilter": 9728,
      "minFilter": 9728,
      "wrapS": 10497,
      "wrapT": 10497
    }
  ],
  "scene": 0,
  "scenes": [
    {
      "name": "OSG_Scene",
      "nodes": [
        0
      ]
    }
  ],
  "textures": [
    {
      "sampler": 0,
      "source": 0
    },
    {
      "sampler": 0,
      "source": 1
    },
    {
      "sampler": 0,
      "source": 2
    },
    {
      "sampler": 0,
      "source": 3
    },
    {
      "sampler": 0,
      "source": 4
    }
  ]
}

