# This file uses centimeters as units for non-parametric coordinates.

mtllib space ship.mtl
g default
v 1.685765 0.912527 0.391779
v 1.318695 0.355485 0.307998
v 1.024327 0.290869 0.542748
v 1.024327 0.361140 0.919259
v 1.318695 0.279995 1.154009
v 1.685765 0.554312 1.070227
v 1.849127 0.857408 0.731003
v 1.902707 0.837773 0.119743
v 1.241269 0.319314 0.905647
v 0.710837 0.319314 0.391779
v 0.710837 0.319314 1.070227
v 1.241269 0.319314 1.493233
v 1.902707 0.319314 1.342264
v 2.197075 0.906540 0.731003
v 2.023101 0.720283 0.390259
v 1.198301 0.720283 0.427807
v 0.536864 0.720283 0.307998
v 0.536863 0.720283 1.154009
v 1.198301 0.720283 3.507449
v 2.023101 0.720283 3.448405
v 2.390171 0.720283 1.275035
v 2.023101 1.385977 0.306135
v 1.198301 1.165325 0.399066
v 0.536864 1.165325 0.307998
v 0.536863 1.165325 1.154009
v 1.824870 1.165325 2.926713
v 2.023101 1.165325 4.258589
v 2.390171 1.165325 0.731003
v 1.902707 1.566294 0.119743
v 1.241269 1.566294 0.469359
v 0.710837 1.566294 0.391779
v 0.710837 1.566294 2.945086
v 1.241269 1.566294 5.349822
v 2.549843 1.566294 1.342264
v 2.197075 1.566294 1.331915
v 1.685765 1.843773 0.601212
v 1.318695 1.843773 0.307998
v 1.024327 1.843773 0.542748
v 1.024327 1.843773 0.919259
v 1.318695 1.843773 1.154009
v 1.685765 1.843773 1.070227
v 1.849127 1.843773 0.766670
v 1.415243 0.399887 0.731003
v 1.415243 2.346530 0.731003
vt 0.000000 0.142857
vt 0.142857 0.142857
vt 0.285714 0.142857
vt 0.428571 0.142857
vt 0.571429 0.142857
vt 0.714286 0.142857
vt 0.857143 0.142857
vt 1.000000 0.142857
vt 0.000000 0.285714
vt 0.142857 0.285714
vt 0.285714 0.285714
vt 0.428571 0.285714
vt 0.571429 0.285714
vt 0.714286 0.285714
vt 0.857143 0.285714
vt 1.000000 0.285714
vt 0.000000 0.428571
vt 0.142857 0.428571
vt 0.285714 0.428571
vt 0.428571 0.428571
vt 0.571429 0.428571
vt 0.714286 0.428571
vt 0.857143 0.428571
vt 1.000000 0.428571
vt 0.000000 0.571429
vt 0.142857 0.571429
vt 0.285714 0.571429
vt 0.428571 0.571429
vt 0.571429 0.571429
vt 0.714286 0.571429
vt 0.857143 0.571429
vt 1.000000 0.571429
vt 0.000000 0.714286
vt 0.142857 0.714286
vt 0.285714 0.714286
vt 0.428571 0.714286
vt 0.571429 0.714286
vt 0.714286 0.714286
vt 0.857143 0.714286
vt 1.000000 0.714286
vt 0.000000 0.857143
vt 0.142857 0.857143
vt 0.285714 0.857143
vt 0.428571 0.857143
vt 0.571429 0.857143
vt 0.714286 0.857143
vt 0.857143 0.857143
vt 1.000000 0.857143
vt 0.071429 0.000000
vt 0.214286 0.000000
vt 0.357143 0.000000
vt 0.500000 0.000000
vt 0.642857 0.000000
vt 0.785714 0.000000
vt 0.928572 0.000000
vt 0.071429 1.000000
vt 0.214286 1.000000
vt 0.357143 1.000000
vt 0.500000 1.000000
vt 0.642857 1.000000
vt 0.785714 1.000000
vt 0.928572 1.000000
vn -0.473118 0.752038 0.458911
vn -0.473118 0.752037 0.458911
vn -0.473118 0.752037 0.458911
vn -0.473118 0.752038 0.458911
vn -0.064770 0.997121 -0.039437
vn -0.064770 0.997121 -0.039437
vn -0.064770 0.997121 -0.039437
vn -0.064770 0.997121 -0.039437
vn 0.021290 -0.997563 0.066448
vn 0.021290 -0.997563 0.066448
vn 0.021290 -0.997563 0.066448
vn 0.021290 -0.997563 0.066448
vn -0.057473 -0.997047 -0.050933
vn -0.057473 -0.997047 -0.050933
vn -0.057473 -0.997047 -0.050933
vn -0.057473 -0.997047 -0.050933
vn 0.170525 -0.926475 -0.335508
vn 0.170525 -0.926475 -0.335508
vn 0.170525 -0.926475 -0.335508
vn 0.170525 -0.926475 -0.335508
vn 0.073851 -0.745332 -0.662591
vn 0.073851 -0.745332 -0.662591
vn 0.073851 -0.745332 -0.662591
vn 0.073851 -0.745332 -0.662591
vn -0.031176 -0.999083 0.029359
vn -0.031176 -0.999083 0.029359
vn -0.031176 -0.999083 0.029359
vn -0.031176 -0.999083 0.029359
vn -0.267977 -0.519978 -0.811056
vn -0.267977 -0.519978 -0.811056
vn -0.267977 -0.519978 -0.811055
vn -0.267977 -0.519978 -0.811056
vn 0.421326 -0.441007 -0.792463
vn 0.421326 -0.441007 -0.792463
vn 0.421326 -0.441008 -0.792463
vn 0.421326 -0.441008 -0.792463
vn -0.917372 -0.398032 -0.000000
vn -0.917372 -0.398032 -0.000000
vn -0.917372 -0.398032 -0.000000
vn -0.917372 -0.398032 -0.000000
vn -0.565563 -0.788159 0.242784
vn -0.565563 -0.788159 0.242784
vn -0.565563 -0.788159 0.242784
vn -0.565563 -0.788159 0.242784
vn 0.026917 -0.981321 0.190487
vn 0.026917 -0.981321 0.190487
vn 0.026917 -0.981321 0.190487
vn 0.026917 -0.981321 0.190487
vn 0.634193 -0.773075 -0.012386
vn 0.634193 -0.773075 -0.012386
vn 0.634194 -0.773075 -0.012386
vn 0.634193 -0.773075 -0.012386
vn -0.909599 0.124350 0.396442
vn -0.909599 0.124350 0.396442
vn -0.909599 0.124350 0.396442
vn -0.909599 0.124350 0.396442
vn -0.065032 -0.100879 -0.992771
vn -0.065032 -0.100879 -0.992771
vn -0.065032 -0.100879 -0.992771
vn -0.065032 -0.100879 -0.992771
vn 0.157341 -0.031872 -0.987030
vn 0.157341 -0.031872 -0.987030
vn 0.157341 -0.031872 -0.987030
vn 0.157341 -0.031872 -0.987030
vn -1.000000 0.000000 -0.000000
vn -1.000000 0.000000 -0.000000
vn -1.000000 0.000000 -0.000000
vn -1.000000 0.000000 -0.000000
vn -0.666997 0.675135 0.315130
vn -0.666997 0.675135 0.315130
vn -0.666997 0.675135 0.315130
vn -0.666997 0.675135 0.315130
vn -0.726861 0.361070 0.584210
vn -0.726861 0.361070 0.584210
vn -0.726861 0.361070 0.584210
vn -0.726861 0.361070 0.584210
vn 0.991088 -0.038163 0.127627
vn 0.991088 -0.038163 0.127627
vn 0.991088 -0.038163 0.127627
vn 0.991088 -0.038163 0.127627
vn 0.814682 -0.285468 -0.504779
vn 0.814682 -0.285468 -0.504779
vn 0.814682 -0.285468 -0.504779
vn 0.814682 -0.285468 -0.504779
vn -0.247961 -0.221397 -0.943133
vn -0.247961 -0.221397 -0.943133
vn -0.247961 -0.221397 -0.943133
vn -0.247961 -0.221397 -0.943133
vn 0.138505 0.150596 -0.978845
vn 0.138505 0.150596 -0.978845
vn 0.138505 0.150596 -0.978845
vn 0.138505 0.150596 -0.978845
vn -0.917371 0.398032 -0.000000
vn -0.917371 0.398032 -0.000000
vn -0.917371 0.398032 -0.000000
vn -0.917371 0.398032 -0.000000
vn -0.332964 -0.931733 0.144939
vn -0.332964 -0.931734 0.144939
vn -0.332964 -0.931733 0.144939
vn -0.332964 -0.931734 0.144939
vn 0.818892 0.341687 0.461157
vn 0.818892 0.341687 0.461157
vn 0.818892 0.341687 0.461158
vn 0.818892 0.341687 0.461157
vn 0.927064 -0.374884 0.003748
vn 0.927064 -0.374884 0.003748
vn 0.927064 -0.374884 0.003748
vn 0.927064 -0.374884 0.003748
vn 0.775866 0.585682 -0.234542
vn 0.775865 0.585682 -0.234542
vn 0.775865 0.585682 -0.234542
vn 0.775865 0.585682 -0.234542
vn -0.047731 0.490051 -0.870386
vn -0.047731 0.490051 -0.870386
vn -0.047731 0.490051 -0.870386
vn -0.047731 0.490051 -0.870386
vn -0.185994 0.112737 -0.976062
vn -0.185994 0.112737 -0.976062
vn -0.185994 0.112737 -0.976062
vn -0.185994 0.112737 -0.976062
vn -0.662790 0.748806 -0.000000
vn -0.662790 0.748806 -0.000000
vn -0.662790 0.748806 -0.000000
vn -0.662790 0.748806 -0.000000
vn -0.230619 0.970372 0.072065
vn -0.230619 0.970372 0.072065
vn -0.230619 0.970372 0.072065
vn -0.230619 0.970372 0.072065
vn 0.206739 0.974726 0.084672
vn 0.206739 0.974725 0.084672
vn 0.206739 0.974726 0.084672
vn 0.206739 0.974726 0.084672
vn 0.578677 0.737033 -0.349164
vn 0.578677 0.737033 -0.349164
vn 0.578677 0.737033 -0.349164
vn 0.578677 0.737033 -0.349164
vn 0.698957 0.676408 -0.232234
vn 0.698957 0.676408 -0.232234
vn 0.698957 0.676408 -0.232234
vn 0.698957 0.676408 -0.232234
vn 0.836561 -0.530927 -0.135209
vn 0.836561 -0.530927 -0.135209
vn 0.836561 -0.530927 -0.135209
vn 0.248229 -0.967659 0.044917
vn 0.248229 -0.967659 0.044917
vn 0.248229 -0.967659 0.044917
vn 0.182665 -0.966486 0.180382
vn 0.182665 -0.966486 0.180382
vn 0.182665 -0.966486 0.180382
vn -0.040261 -0.958874 -0.280962
vn -0.040261 -0.958874 -0.280962
vn -0.040261 -0.958874 -0.280962
vn 0.581669 -0.807720 -0.096169
vn 0.581669 -0.807721 -0.096169
vn 0.581669 -0.807720 -0.096169
vn 0.701323 -0.665090 -0.256519
vn 0.701323 -0.665090 -0.256519
vn 0.701323 -0.665090 -0.256519
vn 0.658892 -0.624851 -0.418835
vn 0.658892 -0.624851 -0.418835
vn 0.658892 -0.624851 -0.418835
vn 0.549733 0.473465 -0.688204
vn 0.549733 0.473465 -0.688204
vn 0.549733 0.473465 -0.688204
vn -0.492209 0.613825 -0.617210
vn -0.492209 0.613825 -0.617210
vn -0.492209 0.613825 -0.617210
vn -0.789442 0.613825 0.000000
vn -0.789442 0.613825 0.000000
vn -0.789442 0.613825 0.000000
vn -0.492209 0.613825 0.617211
vn -0.492209 0.613825 0.617211
vn -0.492209 0.613825 0.617211
vn 0.175667 0.613825 0.769649
vn 0.175667 0.613825 0.769649
vn 0.175667 0.613826 0.769649
vn 0.689778 0.621619 0.371209
vn 0.689778 0.621619 0.371209
vn 0.689778 0.621619 0.371209
vn 0.619744 0.491435 -0.611890
vn 0.619744 0.491435 -0.611890
vn 0.619744 0.491435 -0.611890
s off
g pSphere1
usemtl initialShadingGroup
f 1/1/1 2/2/2 9/10/3 8/9/4
f 2/2/5 3/3/6 10/11/7 9/10/8
f 3/3/9 4/4/10 11/12/11 10/11/12
f 4/4/13 5/5/14 12/13/15 11/12/16
f 5/5/17 6/6/18 13/14/19 12/13/20
f 6/6/21 7/7/22 14/15/23 13/14/24
f 7/7/25 1/8/26 8/16/27 14/15/28
f 8/9/29 9/10/30 16/18/31 15/17/32
f 9/10/33 10/11/34 17/19/35 16/18/36
f 10/11/37 11/12/38 18/20/39 17/19/40
f 11/12/41 12/13/42 19/21/43 18/20/44
f 12/13/45 13/14/46 20/22/47 19/21/48
f 13/14/49 14/15/50 21/23/51 20/22/52
f 14/15/53 8/16/54 15/24/55 21/23/56
f 15/17/57 16/18/58 23/26/59 22/25/60
f 16/18/61 17/19/62 24/27/63 23/26/64
f 17/19/65 18/20/66 25/28/67 24/27/68
f 18/20/69 19/21/70 26/29/71 25/28/72
f 19/21/73 20/22/74 27/30/75 26/29/76
f 20/22/77 21/23/78 28/31/79 27/30/80
f 21/23/81 15/24/82 22/32/83 28/31/84
f 22/25/85 23/26/86 30/34/87 29/33/88
f 23/26/89 24/27/90 31/35/91 30/34/92
f 24/27/93 25/28/94 32/36/95 31/35/96
f 25/28/97 26/29/98 33/37/99 32/36/100
f 26/29/101 27/30/102 34/38/103 33/37/104
f 27/30/105 28/31/106 35/39/107 34/38/108
f 28/31/109 22/32/110 29/40/111 35/39/112
f 29/33/113 30/34/114 37/42/115 36/41/116
f 30/34/117 31/35/118 38/43/119 37/42/120
f 31/35/121 32/36/122 39/44/123 38/43/124
f 32/36/125 33/37/126 40/45/127 39/44/128
f 33/37/129 34/38/130 41/46/131 40/45/132
f 34/38/133 35/39/134 42/47/135 41/46/136
f 35/39/137 29/40/138 36/48/139 42/47/140
f 2/2/141 1/1/142 43/49/143
f 3/3/144 2/2/145 43/50/146
f 4/4/147 3/3/148 43/51/149
f 5/5/150 4/4/151 43/52/152
f 6/6/153 5/5/154 43/53/155
f 7/7/156 6/6/157 43/54/158
f 1/8/159 7/7/160 43/55/161
f 36/41/162 37/42/163 44/56/164
f 37/42/165 38/43/166 44/57/167
f 38/43/168 39/44/169 44/58/170
f 39/44/171 40/45/172 44/59/173
f 40/45/174 41/46/175 44/60/176
f 41/46/177 42/47/178 44/61/179
f 42/47/180 36/48/181 44/62/182
